<?xml version="1.0" encoding="UTF-8" standalone="no"?>
<!-- Created with Inkscape (http://www.inkscape.org/) -->

<svg
   xmlns:dc="http://purl.org/dc/elements/1.1/"
   xmlns:cc="http://creativecommons.org/ns#"
   xmlns:rdf="http://www.w3.org/1999/02/22-rdf-syntax-ns#"
   xmlns:svg="http://www.w3.org/2000/svg"
   xmlns="http://www.w3.org/2000/svg"
   xmlns:sodipodi="http://sodipodi.sourceforge.net/DTD/sodipodi-0.dtd"
   xmlns:inkscape="http://www.inkscape.org/namespaces/inkscape"
   width="333.38794"
   height="333.32932"
   id="svg3902"
   version="1.1"
   inkscape:version="0.48.4 r9939"
   sodipodi:docname="logo_rework.svg">
  <defs
     id="defs3904" />
  <sodipodi:namedview
     id="base"
     pagecolor="#ffffff"
     bordercolor="#666666"
     borderopacity="1.0"
     inkscape:pageopacity="0.0"
     inkscape:pageshadow="2"
     inkscape:zoom="0.98994949"
     inkscape:cx="361.99223"
     inkscape:cy="94.204323"
     inkscape:document-units="px"
     inkscape:current-layer="layer2"
     showgrid="false"
     inkscape:window-width="1920"
     inkscape:window-height="1056"
     inkscape:window-x="0"
     inkscape:window-y="24"
     inkscape:window-maximized="1"
     showguides="true"
     inkscape:guide-bbox="true"
     fit-margin-top="0"
     fit-margin-left="0"
     fit-margin-right="0"
     fit-margin-bottom="0" />
  <metadata
     id="metadata3907">
    <rdf:RDF>
      <cc:Work
         rdf:about="">
        <dc:format>image/svg+xml</dc:format>
        <dc:type
           rdf:resource="http://purl.org/dc/dcmitype/StillImage" />
        <dc:title></dc:title>
      </cc:Work>
    </rdf:RDF>
  </metadata>
  <g
     inkscape:groupmode="layer"
     id="layer2"
     inkscape:label="icon"
     style="display:inline"
     transform="translate(-103.4553,-241.72821)">
    <path
       style="fill:#304392;fill-opacity:1;stroke:none;display:inline"
       d="m 331.68102,244.34616 c -2.02594,-2.89181 -5.06281,-2.61049 -5.06281,-2.61049 l -111.85946,0 c 0,0 -3.14574,-0.24187 -5.1551,2.63587 -2.00936,2.87773 -0.84098,5.7393 -0.84098,5.7393 l 25.29666,62.89947 c 0,0 0.44977,0.94987 1.27657,1.86152 0.82681,0.91165 1.80484,1.51587 1.80484,1.51587 l 30.98146,15.69857 c 0,0 1.01551,0.48915 2.39278,0.51471 1.37727,0.0256 2.79511,-0.59611 2.79511,-0.59611 l 30.79979,-15.59055 c 0,0 1.0108,-0.50993 1.90334,-1.50181 0.89254,-0.99187 1.22947,-1.92598 1.22947,-1.92598 l 25.25178,-62.85243 c 0,0 1.2125,-2.89614 -0.81345,-5.78794 z"
       id="path3003-4"
       inkscape:connector-curvature="0"
       sodipodi:nodetypes="zcczcczcczcczccz" />
    <path
       sodipodi:nodetypes="zcczcczcczcczccz"
       inkscape:connector-curvature="0"
       id="path3835"
       d="m 197.09054,248.66165 c -3.47738,-0.61226 -5.42584,1.73405 -5.42584,1.73405 l -79.09659,79.09659 c 0,0 -2.3954,2.05334 -1.78136,5.50905 0.61403,3.45569 3.46363,4.65296 3.46363,4.65296 l 62.36409,26.5892 c 0,0 0.98969,0.35362 2.21896,0.41362 1.22928,0.06 2.3481,-0.20433 2.3481,-0.20433 l 33.00776,-10.80664 c 0,0 1.06396,-0.37219 2.05591,-1.32799 0.99198,-0.95578 1.55493,-2.39796 1.55493,-2.39796 l 10.75455,-32.80292 c 0,0 0.35417,-1.07532 0.28393,-2.40781 -0.0702,-1.33248 -0.49251,-2.23124 -0.49251,-2.23124 l -26.58767,-62.29908 c 0,0 -1.19052,-2.90525 -4.66789,-3.5175 z"
       style="fill:#b4d35f;fill-opacity:1;stroke:none;display:inline" />
    <path
       style="fill:#a9305e;fill-opacity:1;stroke:none;display:inline"
       d="m 106.07325,347.35149 c -2.89181,2.02595 -2.61049,5.06281 -2.61049,5.06281 l 0,111.85947 c 0,0 -0.24187,3.14573 2.63587,5.1551 2.87773,2.00936 5.7393,0.84098 5.7393,0.84098 l 62.89947,-25.29667 c 0,0 0.94987,-0.44976 1.86152,-1.27656 0.91166,-0.82681 1.51587,-1.80484 1.51587,-1.80484 l 15.69857,-30.98146 c 0,0 0.48915,-1.01551 0.51471,-2.39278 0.0256,-1.37728 -0.59611,-2.79512 -0.59611,-2.79512 l -15.59055,-30.79978 c 0,0 -0.50993,-1.0108 -1.50181,-1.90335 -0.99185,-0.89256 -1.92598,-1.22947 -1.92598,-1.22947 l -62.85243,-25.25178 c 0,0 -2.89614,-1.21249 -5.78794,0.81345 z"
       id="path3837"
       inkscape:connector-curvature="0"
       sodipodi:nodetypes="zcczcczcczcczccz" />
    <path
       sodipodi:nodetypes="zcczcczcczcczccz"
       inkscape:connector-curvature="0"
       id="path3839"
       d="m 434.22528,347.35149 c 2.89181,2.02595 2.61049,5.06281 2.61049,5.06281 l 0,111.85947 c 0,0 0.24187,3.14573 -2.63587,5.1551 -2.87773,2.00936 -5.7393,0.84098 -5.7393,0.84098 l -62.89947,-25.29667 c 0,0 -0.94987,-0.44976 -1.86152,-1.27656 -0.91166,-0.82681 -1.51587,-1.80484 -1.51587,-1.80484 l -15.69857,-30.98146 c 0,0 -0.48915,-1.01551 -0.51471,-2.39278 -0.0256,-1.37728 0.59611,-2.79512 0.59611,-2.79512 l 15.59055,-30.79978 c 0,0 0.50993,-1.0108 1.50181,-1.90335 0.99185,-0.89256 1.92598,-1.22947 1.92598,-1.22947 l 62.85243,-25.25178 c 0,0 2.89614,-1.21249 5.78794,0.81345 z"
       style="fill:#a9305e;fill-opacity:1;stroke:none;display:inline" />
    <path
       sodipodi:nodetypes="zcczcczcczcczccz"
       inkscape:connector-curvature="0"
       id="path3841"
       d="m 331.68102,572.43958 c -2.02594,2.89181 -5.06281,2.61049 -5.06281,2.61049 l -111.85946,0 c 0,0 -3.14574,0.24187 -5.1551,-2.63587 -2.00936,-2.87773 -0.84098,-5.7393 -0.84098,-5.7393 l 25.29666,-62.89947 c 0,0 0.44977,-0.94987 1.27657,-1.86152 0.82681,-0.91165 1.80484,-1.51587 1.80484,-1.51587 l 30.98146,-15.69857 c 0,0 1.01551,-0.48915 2.39278,-0.51471 1.37727,-0.0256 2.79511,0.59611 2.79511,0.59611 l 30.79979,15.59055 c 0,0 1.0108,0.50993 1.90334,1.50181 0.89254,0.99187 1.22947,1.92598 1.22947,1.92598 l 25.25178,62.85243 c 0,0 1.2125,2.89614 -0.81345,5.78794 z"
       style="fill:#304392;fill-opacity:1;stroke:none;display:inline" />
    <path
       style="fill:#de5d4a;fill-opacity:1;stroke:none;display:inline"
       d="m 197.09054,568.41749 c -3.47738,0.61226 -5.42584,-1.73405 -5.42584,-1.73405 l -79.09659,-79.09659 c 0,0 -2.3954,-2.05334 -1.78136,-5.50905 0.61403,-3.45569 3.46363,-4.65296 3.46363,-4.65296 l 62.36409,-26.5892 c 0,0 0.98969,-0.35362 2.21896,-0.41362 1.22928,-0.06 2.3481,0.20433 2.3481,0.20433 l 33.00776,10.80664 c 0,0 1.06396,0.37219 2.05591,1.32799 0.99198,0.95578 1.55493,2.39796 1.55493,2.39796 l 10.75455,32.80292 c 0,0 0.35417,1.07532 0.28393,2.40781 -0.0702,1.33248 -0.49251,2.23124 -0.49251,2.23124 l -26.58767,62.29908 c 0,0 -1.19052,2.90525 -4.66789,3.5175 z"
       id="path3843"
       inkscape:connector-curvature="0"
       sodipodi:nodetypes="zcczcczcczcczccz" />
    <path
       style="fill:#de5d4a;fill-opacity:1;stroke:none;display:inline"
       d="m 343.58622,248.66165 c 3.47738,-0.61226 5.42584,1.73405 5.42584,1.73405 l 79.09659,79.09659 c 0,0 2.3954,2.05334 1.78136,5.50905 -0.61403,3.45569 -3.46363,4.65296 -3.46363,4.65296 l -62.36409,26.5892 c 0,0 -0.98969,0.35362 -2.21896,0.41362 -1.22928,0.06 -2.3481,-0.20433 -2.3481,-0.20433 l -33.00776,-10.80664 c 0,0 -1.06396,-0.37219 -2.05591,-1.32799 -0.99198,-0.95578 -1.55493,-2.39796 -1.55493,-2.39796 l -10.75455,-32.80292 c 0,0 -0.35417,-1.07532 -0.28393,-2.40781 0.0702,-1.33248 0.49251,-2.23124 0.49251,-2.23124 l 26.58767,-62.29908 c 0,0 1.19052,-2.90525 4.66789,-3.5175 z"
       id="path3845"
       inkscape:connector-curvature="0"
       sodipodi:nodetypes="zcczcczcczcczccz" />
    <path
       sodipodi:nodetypes="zcczcczcczcczccz"
       inkscape:connector-curvature="0"
       id="path3847"
       d="m 343.58622,568.41749 c 3.47738,0.61226 5.42584,-1.73405 5.42584,-1.73405 l 79.09659,-79.09659 c 0,0 2.3954,-2.05334 1.78136,-5.50905 -0.61403,-3.45569 -3.46363,-4.65296 -3.46363,-4.65296 l -62.36409,-26.5892 c 0,0 -0.98969,-0.35362 -2.21896,-0.41362 -1.22928,-0.06 -2.3481,0.20433 -2.3481,0.20433 l -33.00776,10.80664 c 0,0 -1.06396,0.37219 -2.05591,1.32799 -0.99198,0.95578 -1.55493,2.39796 -1.55493,2.39796 l -10.75455,32.80292 c 0,0 -0.35417,1.07532 -0.28393,2.40781 0.0702,1.33248 0.49251,2.23124 0.49251,2.23124 l 26.58767,62.29908 c 0,0 1.19052,2.90525 4.66789,3.5175 z"
       style="fill:#b4d35f;fill-opacity:1;stroke:none;display:inline" />
  </g>
</svg>
